<mxfile host="app.diagrams.net" modified="2021-04-06T08:03:43.867Z" agent="5.0 (Windows NT 10.0; Win64; x64) AppleWebKit/537.36 (KHTML, like Gecko) Chrome/89.0.4389.90 Safari/537.36" etag="kgCb2zphn6nU6jLlSCAi" version="14.5.1" type="github">
  <diagram id="3-86lcSl4SKGRaDSt_tE" name="Page-1">
    <mxGraphModel dx="1422" dy="762" grid="1" gridSize="10" guides="1" tooltips="1" connect="1" arrows="1" fold="1" page="1" pageScale="1" pageWidth="827" pageHeight="1169" math="0" shadow="0">
      <root>
        <mxCell id="0" />
        <mxCell id="1" parent="0" />
        <mxCell id="WADApChbI8D1xkhXfjJG-22" style="edgeStyle=orthogonalEdgeStyle;rounded=0;orthogonalLoop=1;jettySize=auto;html=1;exitX=1;exitY=0.5;exitDx=0;exitDy=0;entryX=0;entryY=0.5;entryDx=0;entryDy=0;" parent="1" source="WADApChbI8D1xkhXfjJG-1" target="WADApChbI8D1xkhXfjJG-2" edge="1">
          <mxGeometry relative="1" as="geometry" />
        </mxCell>
        <mxCell id="WADApChbI8D1xkhXfjJG-23" style="edgeStyle=orthogonalEdgeStyle;rounded=0;orthogonalLoop=1;jettySize=auto;html=1;exitX=1;exitY=0.5;exitDx=0;exitDy=0;entryX=0;entryY=0.5;entryDx=0;entryDy=0;" parent="1" source="WADApChbI8D1xkhXfjJG-1" target="WADApChbI8D1xkhXfjJG-3" edge="1">
          <mxGeometry relative="1" as="geometry" />
        </mxCell>
        <mxCell id="_E0jkhPn-QyxGGsHiM6I-2" style="edgeStyle=orthogonalEdgeStyle;rounded=0;orthogonalLoop=1;jettySize=auto;html=1;exitX=1;exitY=0.5;exitDx=0;exitDy=0;entryX=0;entryY=0.5;entryDx=0;entryDy=0;" edge="1" parent="1" source="WADApChbI8D1xkhXfjJG-1" target="_E0jkhPn-QyxGGsHiM6I-1">
          <mxGeometry relative="1" as="geometry" />
        </mxCell>
        <mxCell id="WADApChbI8D1xkhXfjJG-1" value="&lt;font style=&quot;font-size: 18px&quot;&gt;v4.1.1&lt;/font&gt;" style="rounded=1;whiteSpace=wrap;html=1;" parent="1" vertex="1">
          <mxGeometry x="60" y="310" width="120" height="40" as="geometry" />
        </mxCell>
        <mxCell id="WADApChbI8D1xkhXfjJG-24" value="" style="edgeStyle=orthogonalEdgeStyle;rounded=0;orthogonalLoop=1;jettySize=auto;html=1;" parent="1" source="WADApChbI8D1xkhXfjJG-2" target="WADApChbI8D1xkhXfjJG-5" edge="1">
          <mxGeometry relative="1" as="geometry" />
        </mxCell>
        <mxCell id="WADApChbI8D1xkhXfjJG-25" style="edgeStyle=orthogonalEdgeStyle;rounded=0;orthogonalLoop=1;jettySize=auto;html=1;exitX=1;exitY=0.5;exitDx=0;exitDy=0;entryX=0;entryY=0.5;entryDx=0;entryDy=0;" parent="1" source="WADApChbI8D1xkhXfjJG-2" target="WADApChbI8D1xkhXfjJG-4" edge="1">
          <mxGeometry relative="1" as="geometry">
            <Array as="points">
              <mxPoint x="350" y="240" />
              <mxPoint x="350" y="180" />
            </Array>
          </mxGeometry>
        </mxCell>
        <mxCell id="WADApChbI8D1xkhXfjJG-26" style="edgeStyle=orthogonalEdgeStyle;rounded=0;orthogonalLoop=1;jettySize=auto;html=1;exitX=1;exitY=0.5;exitDx=0;exitDy=0;entryX=0;entryY=0.5;entryDx=0;entryDy=0;" parent="1" source="WADApChbI8D1xkhXfjJG-2" target="WADApChbI8D1xkhXfjJG-6" edge="1">
          <mxGeometry relative="1" as="geometry">
            <Array as="points">
              <mxPoint x="350" y="240" />
              <mxPoint x="350" y="300" />
            </Array>
          </mxGeometry>
        </mxCell>
        <mxCell id="WADApChbI8D1xkhXfjJG-2" value="用户信息" style="rounded=1;whiteSpace=wrap;html=1;" parent="1" vertex="1">
          <mxGeometry x="220" y="220" width="120" height="40" as="geometry" />
        </mxCell>
        <mxCell id="WADApChbI8D1xkhXfjJG-35" style="edgeStyle=orthogonalEdgeStyle;rounded=0;orthogonalLoop=1;jettySize=auto;html=1;exitX=1;exitY=0.5;exitDx=0;exitDy=0;entryX=0;entryY=0.5;entryDx=0;entryDy=0;" parent="1" source="WADApChbI8D1xkhXfjJG-3" target="WADApChbI8D1xkhXfjJG-7" edge="1">
          <mxGeometry relative="1" as="geometry">
            <Array as="points">
              <mxPoint x="350" y="430" />
              <mxPoint x="350" y="370" />
            </Array>
          </mxGeometry>
        </mxCell>
        <mxCell id="WADApChbI8D1xkhXfjJG-36" style="edgeStyle=orthogonalEdgeStyle;rounded=0;orthogonalLoop=1;jettySize=auto;html=1;exitX=1;exitY=0.5;exitDx=0;exitDy=0;entryX=0;entryY=0.5;entryDx=0;entryDy=0;" parent="1" source="WADApChbI8D1xkhXfjJG-3" target="WADApChbI8D1xkhXfjJG-8" edge="1">
          <mxGeometry relative="1" as="geometry" />
        </mxCell>
        <mxCell id="WADApChbI8D1xkhXfjJG-37" style="edgeStyle=orthogonalEdgeStyle;rounded=0;orthogonalLoop=1;jettySize=auto;html=1;exitX=1;exitY=0.5;exitDx=0;exitDy=0;entryX=0;entryY=0.5;entryDx=0;entryDy=0;" parent="1" source="WADApChbI8D1xkhXfjJG-3" target="WADApChbI8D1xkhXfjJG-9" edge="1">
          <mxGeometry relative="1" as="geometry">
            <Array as="points">
              <mxPoint x="350" y="430" />
              <mxPoint x="350" y="490" />
            </Array>
          </mxGeometry>
        </mxCell>
        <mxCell id="_E0jkhPn-QyxGGsHiM6I-7" style="edgeStyle=orthogonalEdgeStyle;rounded=0;orthogonalLoop=1;jettySize=auto;html=1;exitX=1;exitY=0.5;exitDx=0;exitDy=0;entryX=0;entryY=0.5;entryDx=0;entryDy=0;" edge="1" parent="1" source="WADApChbI8D1xkhXfjJG-3" target="_E0jkhPn-QyxGGsHiM6I-6">
          <mxGeometry relative="1" as="geometry">
            <Array as="points">
              <mxPoint x="350" y="430" />
              <mxPoint x="350" y="550" />
            </Array>
          </mxGeometry>
        </mxCell>
        <mxCell id="WADApChbI8D1xkhXfjJG-3" value="游戏管理" style="rounded=1;whiteSpace=wrap;html=1;" parent="1" vertex="1">
          <mxGeometry x="220" y="410" width="120" height="40" as="geometry" />
        </mxCell>
        <mxCell id="WADApChbI8D1xkhXfjJG-27" style="edgeStyle=orthogonalEdgeStyle;rounded=0;orthogonalLoop=1;jettySize=auto;html=1;exitX=1;exitY=0.5;exitDx=0;exitDy=0;entryX=0;entryY=0.5;entryDx=0;entryDy=0;" parent="1" source="WADApChbI8D1xkhXfjJG-4" target="WADApChbI8D1xkhXfjJG-10" edge="1">
          <mxGeometry relative="1" as="geometry" />
        </mxCell>
        <mxCell id="WADApChbI8D1xkhXfjJG-28" style="edgeStyle=orthogonalEdgeStyle;rounded=0;orthogonalLoop=1;jettySize=auto;html=1;exitX=1;exitY=0.5;exitDx=0;exitDy=0;entryX=0;entryY=0.5;entryDx=0;entryDy=0;" parent="1" source="WADApChbI8D1xkhXfjJG-4" target="WADApChbI8D1xkhXfjJG-11" edge="1">
          <mxGeometry relative="1" as="geometry" />
        </mxCell>
        <mxCell id="WADApChbI8D1xkhXfjJG-29" style="edgeStyle=orthogonalEdgeStyle;rounded=0;orthogonalLoop=1;jettySize=auto;html=1;exitX=1;exitY=0.5;exitDx=0;exitDy=0;entryX=0;entryY=0.5;entryDx=0;entryDy=0;" parent="1" source="WADApChbI8D1xkhXfjJG-4" target="WADApChbI8D1xkhXfjJG-12" edge="1">
          <mxGeometry relative="1" as="geometry" />
        </mxCell>
        <mxCell id="WADApChbI8D1xkhXfjJG-4" value="固定分流节点" style="rounded=1;whiteSpace=wrap;html=1;" parent="1" vertex="1">
          <mxGeometry x="370" y="160" width="120" height="40" as="geometry" />
        </mxCell>
        <mxCell id="WADApChbI8D1xkhXfjJG-5" value="IP查询和IP库管理" style="rounded=1;whiteSpace=wrap;html=1;" parent="1" vertex="1">
          <mxGeometry x="370" y="220" width="120" height="40" as="geometry" />
        </mxCell>
        <mxCell id="WADApChbI8D1xkhXfjJG-34" style="edgeStyle=orthogonalEdgeStyle;rounded=0;orthogonalLoop=1;jettySize=auto;html=1;exitX=1;exitY=0.5;exitDx=0;exitDy=0;entryX=0;entryY=0.5;entryDx=0;entryDy=0;" parent="1" source="WADApChbI8D1xkhXfjJG-6" target="WADApChbI8D1xkhXfjJG-16" edge="1">
          <mxGeometry relative="1" as="geometry" />
        </mxCell>
        <mxCell id="WADApChbI8D1xkhXfjJG-6" value="会员中心查询" style="rounded=1;whiteSpace=wrap;html=1;" parent="1" vertex="1">
          <mxGeometry x="370" y="280" width="120" height="40" as="geometry" />
        </mxCell>
        <mxCell id="_E0jkhPn-QyxGGsHiM6I-5" style="edgeStyle=orthogonalEdgeStyle;rounded=0;orthogonalLoop=1;jettySize=auto;html=1;exitX=1;exitY=0.5;exitDx=0;exitDy=0;entryX=0;entryY=0.5;entryDx=0;entryDy=0;" edge="1" parent="1" source="WADApChbI8D1xkhXfjJG-7" target="_E0jkhPn-QyxGGsHiM6I-4">
          <mxGeometry relative="1" as="geometry" />
        </mxCell>
        <mxCell id="WADApChbI8D1xkhXfjJG-7" value="新增区服" style="rounded=1;whiteSpace=wrap;html=1;" parent="1" vertex="1">
          <mxGeometry x="370" y="350" width="120" height="40" as="geometry" />
        </mxCell>
        <mxCell id="WADApChbI8D1xkhXfjJG-8" value="区服标识管理" style="rounded=1;whiteSpace=wrap;html=1;" parent="1" vertex="1">
          <mxGeometry x="370" y="410" width="120" height="40" as="geometry" />
        </mxCell>
        <mxCell id="WADApChbI8D1xkhXfjJG-38" style="edgeStyle=orthogonalEdgeStyle;rounded=0;orthogonalLoop=1;jettySize=auto;html=1;exitX=1;exitY=0.5;exitDx=0;exitDy=0;entryX=0;entryY=0.5;entryDx=0;entryDy=0;" parent="1" source="WADApChbI8D1xkhXfjJG-9" target="WADApChbI8D1xkhXfjJG-17" edge="1">
          <mxGeometry relative="1" as="geometry" />
        </mxCell>
        <mxCell id="WADApChbI8D1xkhXfjJG-39" style="edgeStyle=orthogonalEdgeStyle;rounded=0;orthogonalLoop=1;jettySize=auto;html=1;exitX=1;exitY=0.5;exitDx=0;exitDy=0;entryX=0;entryY=0.5;entryDx=0;entryDy=0;" parent="1" source="WADApChbI8D1xkhXfjJG-9" target="WADApChbI8D1xkhXfjJG-18" edge="1">
          <mxGeometry relative="1" as="geometry" />
        </mxCell>
        <mxCell id="WADApChbI8D1xkhXfjJG-9" value="区服分流配置文件" style="rounded=1;whiteSpace=wrap;html=1;" parent="1" vertex="1">
          <mxGeometry x="370" y="470" width="120" height="40" as="geometry" />
        </mxCell>
        <mxCell id="WADApChbI8D1xkhXfjJG-10" value="固定" style="rounded=1;whiteSpace=wrap;html=1;" parent="1" vertex="1">
          <mxGeometry x="530" y="110" width="120" height="40" as="geometry" />
        </mxCell>
        <mxCell id="WADApChbI8D1xkhXfjJG-11" value="取消固定" style="rounded=1;whiteSpace=wrap;html=1;" parent="1" vertex="1">
          <mxGeometry x="530" y="160" width="120" height="40" as="geometry" />
        </mxCell>
        <mxCell id="WADApChbI8D1xkhXfjJG-30" style="edgeStyle=orthogonalEdgeStyle;rounded=0;orthogonalLoop=1;jettySize=auto;html=1;exitX=1;exitY=0.5;exitDx=0;exitDy=0;entryX=0;entryY=0.5;entryDx=0;entryDy=0;" parent="1" source="WADApChbI8D1xkhXfjJG-12" target="WADApChbI8D1xkhXfjJG-13" edge="1">
          <mxGeometry relative="1" as="geometry">
            <Array as="points">
              <mxPoint x="660" y="230" />
              <mxPoint x="660" y="180" />
            </Array>
          </mxGeometry>
        </mxCell>
        <mxCell id="WADApChbI8D1xkhXfjJG-32" value="" style="edgeStyle=orthogonalEdgeStyle;rounded=0;orthogonalLoop=1;jettySize=auto;html=1;entryX=0;entryY=0.5;entryDx=0;entryDy=0;" parent="1" source="WADApChbI8D1xkhXfjJG-12" target="WADApChbI8D1xkhXfjJG-15" edge="1">
          <mxGeometry relative="1" as="geometry">
            <Array as="points">
              <mxPoint x="660" y="230" />
              <mxPoint x="660" y="280" />
            </Array>
          </mxGeometry>
        </mxCell>
        <mxCell id="WADApChbI8D1xkhXfjJG-33" style="edgeStyle=orthogonalEdgeStyle;rounded=0;orthogonalLoop=1;jettySize=auto;html=1;exitX=1;exitY=0.5;exitDx=0;exitDy=0;entryX=0;entryY=0.5;entryDx=0;entryDy=0;" parent="1" source="WADApChbI8D1xkhXfjJG-12" target="WADApChbI8D1xkhXfjJG-14" edge="1">
          <mxGeometry relative="1" as="geometry" />
        </mxCell>
        <mxCell id="WADApChbI8D1xkhXfjJG-12" value="信息展示" style="rounded=1;whiteSpace=wrap;html=1;" parent="1" vertex="1">
          <mxGeometry x="530" y="210" width="120" height="40" as="geometry" />
        </mxCell>
        <mxCell id="WADApChbI8D1xkhXfjJG-13" value="节点状态" style="rounded=1;whiteSpace=wrap;html=1;" parent="1" vertex="1">
          <mxGeometry x="680" y="160" width="120" height="40" as="geometry" />
        </mxCell>
        <mxCell id="WADApChbI8D1xkhXfjJG-14" value="历史节点" style="rounded=1;whiteSpace=wrap;html=1;" parent="1" vertex="1">
          <mxGeometry x="680" y="210" width="120" height="40" as="geometry" />
        </mxCell>
        <mxCell id="WADApChbI8D1xkhXfjJG-15" value="用户信息/游戏信息" style="rounded=1;whiteSpace=wrap;html=1;" parent="1" vertex="1">
          <mxGeometry x="680" y="260" width="120" height="40" as="geometry" />
        </mxCell>
        <mxCell id="WADApChbI8D1xkhXfjJG-16" value="cn2节点展示" style="rounded=1;whiteSpace=wrap;html=1;" parent="1" vertex="1">
          <mxGeometry x="530" y="280" width="120" height="40" as="geometry" />
        </mxCell>
        <mxCell id="WADApChbI8D1xkhXfjJG-41" style="edgeStyle=orthogonalEdgeStyle;rounded=0;orthogonalLoop=1;jettySize=auto;html=1;exitX=1;exitY=0.5;exitDx=0;exitDy=0;entryX=0;entryY=0.5;entryDx=0;entryDy=0;" parent="1" source="WADApChbI8D1xkhXfjJG-17" target="WADApChbI8D1xkhXfjJG-20" edge="1">
          <mxGeometry relative="1" as="geometry" />
        </mxCell>
        <mxCell id="_E0jkhPn-QyxGGsHiM6I-3" style="edgeStyle=orthogonalEdgeStyle;rounded=0;orthogonalLoop=1;jettySize=auto;html=1;exitX=1;exitY=0.5;exitDx=0;exitDy=0;entryX=0;entryY=0.5;entryDx=0;entryDy=0;" edge="1" parent="1" source="WADApChbI8D1xkhXfjJG-17" target="WADApChbI8D1xkhXfjJG-19">
          <mxGeometry relative="1" as="geometry">
            <Array as="points">
              <mxPoint x="660" y="465" />
              <mxPoint x="660" y="415" />
            </Array>
          </mxGeometry>
        </mxCell>
        <mxCell id="WADApChbI8D1xkhXfjJG-17" value="全局" style="rounded=1;whiteSpace=wrap;html=1;" parent="1" vertex="1">
          <mxGeometry x="530" y="445" width="120" height="40" as="geometry" />
        </mxCell>
        <mxCell id="WADApChbI8D1xkhXfjJG-42" style="edgeStyle=orthogonalEdgeStyle;rounded=0;orthogonalLoop=1;jettySize=auto;html=1;exitX=1;exitY=0.5;exitDx=0;exitDy=0;entryX=0;entryY=0.5;entryDx=0;entryDy=0;" parent="1" source="WADApChbI8D1xkhXfjJG-18" target="WADApChbI8D1xkhXfjJG-21" edge="1">
          <mxGeometry relative="1" as="geometry">
            <mxPoint x="670" y="515" as="targetPoint" />
          </mxGeometry>
        </mxCell>
        <mxCell id="WADApChbI8D1xkhXfjJG-18" value="私有" style="rounded=1;whiteSpace=wrap;html=1;" parent="1" vertex="1">
          <mxGeometry x="530" y="495" width="120" height="40" as="geometry" />
        </mxCell>
        <mxCell id="WADApChbI8D1xkhXfjJG-19" value="游戏全局" style="rounded=1;whiteSpace=wrap;html=1;" parent="1" vertex="1">
          <mxGeometry x="680" y="395" width="120" height="40" as="geometry" />
        </mxCell>
        <mxCell id="WADApChbI8D1xkhXfjJG-20" value="区服全局（区服flag）" style="rounded=1;whiteSpace=wrap;html=1;" parent="1" vertex="1">
          <mxGeometry x="680" y="445" width="120" height="40" as="geometry" />
        </mxCell>
        <mxCell id="WADApChbI8D1xkhXfjJG-21" value="游戏+区服id" style="rounded=1;whiteSpace=wrap;html=1;" parent="1" vertex="1">
          <mxGeometry x="680" y="495" width="120" height="40" as="geometry" />
        </mxCell>
        <mxCell id="_E0jkhPn-QyxGGsHiM6I-1" value="节点分配" style="rounded=1;whiteSpace=wrap;html=1;" vertex="1" parent="1">
          <mxGeometry x="220" y="110" width="120" height="40" as="geometry" />
        </mxCell>
        <mxCell id="_E0jkhPn-QyxGGsHiM6I-4" value="增加区服标识配置" style="rounded=1;whiteSpace=wrap;html=1;" vertex="1" parent="1">
          <mxGeometry x="530" y="350" width="120" height="40" as="geometry" />
        </mxCell>
        <mxCell id="_E0jkhPn-QyxGGsHiM6I-6" value="游戏管理增加筛选条件" style="rounded=1;whiteSpace=wrap;html=1;" vertex="1" parent="1">
          <mxGeometry x="370" y="530" width="120" height="40" as="geometry" />
        </mxCell>
      </root>
    </mxGraphModel>
  </diagram>
</mxfile>
